<?xml version="1.0" encoding="UTF-8"?>
<!DOCTYPE svg PUBLIC "-//W3C//DTD SVG 1.1//EN" "http://www.w3.org/Graphics/SVG/1.1/DTD/svg11.dtd">
<!-- Creator: CorelDRAW -->
<svg xmlns="http://www.w3.org/2000/svg" xml:space="preserve" width="2048px" height="2048px" style="shape-rendering:geometricPrecision; text-rendering:geometricPrecision; image-rendering:optimizeQuality; fill-rule:evenodd; clip-rule:evenodd"
viewBox="0 0 2048 2048"
 xmlns:xlink="http://www.w3.org/1999/xlink">
 <defs>
  <style type="text/css">
   <![CDATA[
    .fil2 {fill:none}
    .fil1 {fill:#757575}
    .fil0 {fill:#BDBDBD}
    .fil3 {fill:#0097A7;fill-rule:nonzero}
    .fil7 {fill:#212121;fill-rule:nonzero}
    .fil5 {fill:#4E342E;fill-rule:nonzero}
    .fil6 {fill:#E64A19;fill-rule:nonzero}
    .fil4 {fill:#FFFFFE;fill-rule:nonzero}
   ]]>
  </style>
   <clipPath id="id0">
    <path d="M1024 0c565.539,0 1024,458.461 1024,1024 0,565.539 -458.461,1024 -1024,1024 -565.539,0 -1024,-458.461 -1024,-1024 0,-565.539 458.461,-1024 1024,-1024z"/>
   </clipPath>
 </defs>
 <g id="Layer_x0020_1">
  <metadata id="CorelCorpID_0Corel-Layer"/>
  <path class="fil0" d="M1024 0c565.539,0 1024,458.461 1024,1024 0,565.539 -458.461,1024 -1024,1024 -565.539,0 -1024,-458.461 -1024,-1024 0,-565.539 458.461,-1024 1024,-1024z"/>
  <g style="clip-path:url(#id0)">
   <g id="_341189944">
    <g>
     <polygon id="_4558188161" class="fil1" points="1447.44,657.524 2583.32,1793.41 2592,1803.67 2600.44,1814.15 2608.63,1824.83 2616.56,1835.71 2624.24,1846.78 2631.66,1858.05 2638.81,1869.5 2645.69,1881.14 2652.29,1892.96 2658.62,1904.94 2664.66,1917.1 2670.41,1929.42 2675.87,1941.91 2681.04,1954.55 2685.9,1967.34 2690.46,1980.28 2694.7,1993.36 2698.64,2006.58 2702.25,2019.93 2705.54,2033.42 2708.5,2047.02 2711.13,2060.75 2713.43,2074.6 2715.38,2088.56 2716.99,2102.63 2718.25,2116.8 2719.15,2131.07 2719.7,2145.43 2719.88,2159.88 1584,1024 1583.82,1009.55 1583.27,995.183 1582.37,980.915 1581.11,966.745 1579.5,952.678 1577.55,938.72 1575.25,924.872 1572.62,911.142 1569.66,897.533 1566.37,884.05 1562.76,870.695 1558.82,857.475 1554.58,844.394 1550.02,831.455 1545.16,818.665 1539.99,806.025 1534.53,793.542 1528.78,781.219 1522.74,769.062 1516.41,757.073 1509.81,745.258 1502.93,733.622 1495.78,722.168 1488.36,710.901 1480.68,699.825 1472.75,688.946 1464.56,678.265 1456.12,667.79 "/>
     <polygon id="_455818984" class="fil1" points="1584,1024 2719.88,2159.88 2719.7,2174.34 2719.15,2188.7 2718.25,2202.97 2716.99,2217.14 2715.38,2231.2 2713.43,2245.16 2711.13,2259.01 2708.5,2272.74 2705.54,2286.35 2702.25,2299.83 2698.64,2313.19 2694.7,2326.41 2690.46,2339.49 2685.9,2352.43 2681.04,2365.22 2675.87,2377.86 2670.41,2390.34 2664.66,2402.66 2658.62,2414.82 2652.29,2426.81 2645.69,2438.62 2638.81,2450.26 2631.66,2461.71 2624.24,2472.98 2616.56,2484.06 2608.63,2494.94 2600.44,2505.62 2592,2516.09 2583.32,2526.36 2574.4,2536.41 2565.25,2546.25 2555.86,2555.86 1419.98,1419.98 1429.36,1410.36 1438.52,1400.53 1447.44,1390.48 1456.12,1380.21 1464.56,1369.73 1472.75,1359.05 1480.68,1348.18 1488.36,1337.1 1495.78,1325.83 1502.93,1314.38 1509.81,1302.74 1516.41,1290.93 1522.74,1278.94 1528.78,1266.78 1534.53,1254.46 1539.99,1241.97 1545.16,1229.34 1550.02,1216.54 1554.58,1203.61 1558.82,1190.52 1562.76,1177.3 1566.37,1163.95 1569.66,1150.47 1572.62,1136.86 1575.25,1123.13 1577.55,1109.28 1579.5,1095.32 1581.11,1081.26 1582.37,1067.09 1583.27,1052.82 1583.82,1038.45 "/>
     <polygon id="_455820304" class="fil1" points="1419.98,1419.98 2555.86,2555.86 2546.25,2565.25 2536.41,2574.4 2526.36,2583.32 2516.09,2592 2505.62,2600.44 2494.94,2608.63 2484.06,2616.56 2472.98,2624.24 2461.71,2631.66 2450.26,2638.81 2438.62,2645.69 2426.81,2652.29 2414.82,2658.62 2402.66,2664.66 2390.34,2670.41 2377.86,2675.88 2365.22,2681.04 2352.42,2685.9 2339.49,2690.46 2326.4,2694.71 2313.18,2698.64 2299.83,2702.25 2286.35,2705.54 2272.74,2708.51 2259.01,2711.14 2245.16,2713.43 2231.2,2715.38 2217.14,2716.99 2202.97,2718.25 2188.7,2719.15 2174.33,2719.7 2159.88,2719.88 1024,1584 1038.45,1583.82 1052.82,1583.27 1067.08,1582.37 1081.26,1581.11 1095.32,1579.5 1109.28,1577.55 1123.13,1575.25 1136.86,1572.62 1150.47,1569.66 1163.95,1566.37 1177.3,1562.76 1190.52,1558.82 1203.61,1554.58 1216.54,1550.02 1229.33,1545.16 1241.97,1539.99 1254.46,1534.53 1266.78,1528.78 1278.94,1522.74 1290.93,1516.41 1302.74,1509.81 1314.38,1502.93 1325.83,1495.78 1337.1,1488.36 1348.18,1480.68 1359.05,1472.75 1369.73,1464.56 1380.21,1456.12 1390.48,1447.44 1400.53,1438.52 1410.36,1429.37 "/>
     <polygon id="_455819968" class="fil1" points="1024,1584 2159.88,2719.88 2145.43,2719.7 2131.06,2719.15 2116.79,2718.25 2102.62,2716.99 2088.56,2715.38 2074.6,2713.43 2060.75,2711.14 2047.02,2708.51 2033.41,2705.54 2019.93,2702.25 2006.58,2698.64 1993.36,2694.71 1980.27,2690.46 1967.34,2685.9 1954.55,2681.04 1941.91,2675.87 1929.42,2670.41 1917.1,2664.66 1904.94,2658.62 1892.95,2652.29 1881.14,2645.69 1869.5,2638.81 1858.05,2631.66 1846.78,2624.24 1835.7,2616.56 1824.83,2608.63 1814.15,2600.44 1803.67,2592 1793.4,2583.32 657.523,1447.44 667.789,1456.12 678.264,1464.56 688.945,1472.75 699.824,1480.68 710.9,1488.36 722.167,1495.78 733.621,1502.93 745.257,1509.81 757.072,1516.41 769.061,1522.74 781.218,1528.78 793.541,1534.53 806.024,1539.99 818.664,1545.16 831.454,1550.02 844.393,1554.58 857.474,1558.82 870.694,1562.76 884.049,1566.37 897.532,1569.66 911.141,1572.62 924.871,1575.25 938.718,1577.55 952.677,1579.5 966.744,1581.11 980.913,1582.37 995.182,1583.27 1009.55,1583.82 "/>
    </g>
    <path id="_341189440" class="fil1" d="M1024 464c154.637,0 294.638,62.6812 395.979,164.022 101.341,101.341 164.022,241.342 164.022,395.978 0,154.637 -62.6812,294.637 -164.022,395.978 -101.341,101.342 -241.342,164.023 -395.979,164.023 -154.636,0 -294.637,-62.6823 -395.978,-164.023 -101.341,-101.341 -164.022,-241.342 -164.022,-395.978 0,-154.636 62.6812,-294.637 164.022,-395.978 101.341,-101.341 241.342,-164.022 395.978,-164.022z"/>
   </g>
  </g>
  <path class="fil2" d="M1024 0c565.539,0 1024,458.461 1024,1024 0,565.539 -458.461,1024 -1024,1024 -565.539,0 -1024,-458.461 -1024,-1024 0,-565.539 458.461,-1024 1024,-1024z"/>
  <path class="fil3" d="M1024 464c154.637,0 294.638,62.6812 395.979,164.022 101.341,101.341 164.022,241.342 164.022,395.978 0,154.637 -62.6812,294.637 -164.022,395.978 -101.341,101.342 -241.342,164.023 -395.979,164.023 -154.636,0 -294.637,-62.6823 -395.978,-164.023 -101.341,-101.341 -164.022,-241.342 -164.022,-395.978 0,-154.636 62.6812,-294.637 164.022,-395.978 101.341,-101.341 241.342,-164.022 395.978,-164.022z"/>
  <path class="fil4" d="M1024 518.565c139.57,0 265.929,56.5737 357.396,148.041 91.4658,91.4658 148.041,217.826 148.041,357.395 0,139.57 -56.5737,265.929 -148.041,357.395 -91.467,91.4682 -217.826,148.041 -357.396,148.041 -139.569,0 -265.928,-56.5737 -357.395,-148.041 -91.467,-91.4658 -148.039,-217.826 -148.039,-357.395 0,-139.569 56.5725,-265.929 148.039,-357.395 91.467,-91.467 217.826,-148.041 357.395,-148.041z"/>
  <path class="fil5" d="M626.821 799.142c-11.4744,-6.64607 -26.1662,-2.73189 -32.811,8.74253 -6.64607,11.4756 -2.73189,26.1662 8.74253,32.8122l336.957 194.543c3.79488,2.19803 7.94174,3.23977 12.0319,3.23622l0 0.0555119c0,19.9358 8.08465,37.9878 21.1512,51.0544 13.0665,13.0665 31.1185,21.1512 51.0556,21.1512 10.2461,0 19.9949,-2.13543 28.8236,-5.98583l20.1319 -13.1504c0.712205,-0.656693 1.41378,-1.32874 2.09882,-2.01496 13.0665,-13.0665 21.1512,-31.1185 21.1512,-51.0544 0,-5.37402 -0.588189,-10.611 -1.70197,-15.6496 0.99567,-0.405118 1.9748,-0.879922 2.93268,-1.43032l284 -163.967c11.4744,-6.5941 15.4311,-21.2433 8.83701,-32.7177 -6.5941,-11.4744 -21.2433,-15.4311 -32.7177,-8.83701l-284 163.967c-1.3937,0.800788 -2.67756,1.72323 -3.84567,2.74252 -12.4488,-10.1953 -28.3666,-16.3146 -45.7099,-16.3146 -19.937,0 -37.989,8.08465 -51.0556,21.1512 -2.42599,2.42599 -4.68071,5.02559 -6.74292,7.7752 -0.751182,-0.561024 -1.54134,-1.08543 -2.37166,-1.56614l-336.957 -194.543z"/>
  <path class="fil6" d="M1019.51 1047.14l222.867 386.019 -199.205 -401.475c0.837402,-0.773623 1.66181,-1.5626 2.46851,-2.36811l-26.1307 17.824z"/>
  <path class="fil7" d="M1049.52 1012.96c-6.53977,-6.54095 -15.5835,-10.5886 -25.5732,-10.5886 -9.99095,0 -19.0347,4.04764 -25.5744,10.5886 -6.54095,6.53977 -10.5886,15.5835 -10.5886,25.5744 0,9.98977 4.04764,19.0335 10.5886,25.5732 6.53977,6.54095 15.5835,10.5898 25.5744,10.5898 9.98977,0 19.0335,-4.04882 25.5732,-10.5898 6.54095,-6.53977 10.5886,-15.5835 10.5886,-25.5732 0,-9.99095 -4.04764,-19.0347 -10.5886,-25.5744z"/>
 </g>
</svg>
